<?xml version="1.0" encoding="UTF-8"?>
<!DOCTYPE svg PUBLIC "-//W3C//DTD SVG 1.1//EN" "http://www.w3.org/Graphics/SVG/1.1/DTD/svg11.dtd">
<!-- Creator: CorelDRAW X7 -->
<svg xmlns="http://www.w3.org/2000/svg" xml:space="preserve" width="210mm" height="210mm" version="1.1" style="shape-rendering:geometricPrecision; text-rendering:geometricPrecision; image-rendering:optimizeQuality; fill-rule:evenodd; clip-rule:evenodd"
viewBox="0 0 21000 21000"
 xmlns:xlink="http://www.w3.org/1999/xlink">
 <defs>
  <style type="text/css">
   <![CDATA[
    .fil1 {fill:#3578BC}
    .fil0 {fill:#0E5CA9}
   ]]>
  </style>
 </defs>
 <g id="Layer_x0020_1">
  <metadata id="CorelCorpID_0Corel-Layer"/>
  <g id="_1769884176736">
   <path class="fil0" d="M10443 1215l36 -4c2703,0 5818,2152 6514,4832 -795,469 -2298,1343 -2855,2782 769,-4612 -3659,-4685 -3659,-4685l0 0 0 0c0,0 -13,0 -36,1l0 0c-23,-1 -36,-1 -36,-1l0 0 0 0c0,0 -4428,73 -3660,4685 -557,-1439 -2059,-2313 -2855,-2782 697,-2680 3812,-4832 6515,-4832l36 4z"/>
   <path class="fil1" d="M10586 5910c1451,0 2627,1176 2627,2627 0,1451 -1176,2627 -2627,2627 -1451,0 -2627,-1176 -2627,-2627 0,-1451 1176,-2627 2627,-2627z"/>
   <path class="fil0" d="M13094 12089c1443,-1525 3037,-3215 3885,-3392 15,2369 -439,3695 -1350,4910 1346,1192 2314,2835 2714,4676 13,45 22,91 29,138 42,209 77,421 105,633l95 735 -5387 0c-658,0 -1195,-537 -1195,-1196 0,-658 537,-1195 1195,-1195l2334 0c-381,-760 -888,-1460 -1500,-2030 -410,402 -861,836 -1353,1327 -472,471 -1818,1771 -2187,1992 -369,-221 -1716,-1521 -2188,-1992 -202,-202 -398,-394 -586,-579l0 2 -31 -32 -296 -288 -416 -412c-604,566 -1104,1259 -1481,2012l2333 0c659,0 1195,537 1195,1195 0,659 -536,1196 -1195,1196l-5386 0 95 -734c27,-213 62,-424 105,-634 6,-47 16,-93 28,-138 398,-1829 1357,-3463 2689,-4654 -922,-1221 -1382,-2549 -1366,-4932 849,178 2449,1876 3895,3404 819,-301 1701,-466 2626,-466 913,0 1785,160 2594,454zm-2615 1686c253,0 459,-205 459,-459 0,-253 -206,-458 -459,-458 -254,0 -459,205 -459,458 0,254 205,459 459,459zm330 12l791 3168 -45 39 45 182 -1121 964 0 0 0 0 0 0 -1122 -964 46 -182 -46 -39 792 -3168 330 0 0 0 330 0z"/>
  </g>
 </g>
</svg>
