<?xml version="1.0" encoding="UTF-8"?>
<!DOCTYPE svg PUBLIC "-//W3C//DTD SVG 1.1//EN" "http://www.w3.org/Graphics/SVG/1.1/DTD/svg11.dtd">
<!-- Creator: CorelDRAW X7 -->
<svg xmlns="http://www.w3.org/2000/svg" xml:space="preserve" width="210mm" height="210mm" version="1.1" style="shape-rendering:geometricPrecision; text-rendering:geometricPrecision; image-rendering:optimizeQuality; fill-rule:evenodd; clip-rule:evenodd"
viewBox="0 0 21000 21000"
 xmlns:xlink="http://www.w3.org/1999/xlink">
 <defs>
  <style type="text/css">
   <![CDATA[
    .fil0 {fill:#0E5CA9}
   ]]>
  </style>
 </defs>
 <g id="Layer_x0020_1">
  <metadata id="CorelCorpID_0Corel-Layer"/>
  <path class="fil0" d="M10500 0c5799,0 10500,4701 10500,10500 0,5799 -4701,10500 -10500,10500 -5799,0 -10500,-4701 -10500,-10500 0,-5799 4701,-10500 10500,-10500zm-45 3176l28 -2c2132,0 4589,1697 5138,3811 -627,369 -1812,1059 -2251,2194 606,-3638 -2887,-3695 -2887,-3695l0 -1 0 1c0,0 -10,0 -28,1l0 0c-18,-1 -28,-1 -28,-1l0 -1 0 1c0,0 -3493,57 -2887,3695 -439,-1135 -1624,-1825 -2252,-2194 550,-2114 3007,-3811 5139,-3811l28 2zm113 3704c1144,0 2072,928 2072,2072 0,1144 -928,2072 -2072,2072 -1144,0 -2072,-928 -2072,-2072 0,-1144 928,-2072 2072,-2072zm1978 4874c1138,-1203 2395,-2536 3064,-2676 12,1868 -346,2914 -1065,3872 1062,941 1825,2237 2141,3689 10,35 17,72 23,108 33,166 61,333 83,500l75 579 -4249 0c-519,0 -943,-423 -943,-943 0,-519 424,-942 943,-942l1841 0c-301,-600 -701,-1152 -1184,-1602 -323,318 -678,660 -1067,1047 -372,371 -1434,1397 -1725,1571 -291,-174 -1353,-1200 -1725,-1571 -160,-159 -314,-311 -463,-456l0 1 -24 -25 -233 -228 -328 -324c-477,446 -871,993 -1169,1587l1841 0c519,0 942,423 942,942 0,520 -423,943 -942,943l-4249 0 75 -579c22,-167 49,-334 83,-500 5,-36 13,-73 22,-108 314,-1443 1070,-2732 2121,-3671 -727,-963 -1090,-2011 -1078,-3890 671,140 1932,1480 3073,2685 645,-238 1341,-368 2071,-368 720,0 1407,127 2046,359zm-2063 1329c200,0 362,-162 362,-362 0,-200 -162,-362 -362,-362 -200,0 -362,162 -362,362 0,200 162,362 362,362zm260 10l625 2498 -36 31 36 144 -885 760 0 0 0 0 0 0 -884 -760 36 -144 -36 -31 624 -2498 260 0 0 0 260 0z"/>
 </g>
</svg>
